<?xml version="1.0" encoding="utf-8"?>
<!-- Generator: Adobe Illustrator 20.0.0, SVG Export Plug-In . SVG Version: 6.00 Build 0)  -->
<svg version="1.1" id="Layer_1" xmlns="http://www.w3.org/2000/svg" xmlns:xlink="http://www.w3.org/1999/xlink" x="0px" y="0px"
	 viewBox="0 0 253.4 103.7" style="enable-background:new 0 0 253.4 103.7;" xml:space="preserve">
<style type="text/css">
	.st0{fill:#AA201E;}
</style>
<title>Chefter_logo_2.0</title>
<path class="st0" d="M23.9,75.3c11.7,0,23.3-8,23.3-19.2c0-1-0.1-2.1-0.3-3.1l-1.9-0.1C43,63.2,36.7,71.2,27.4,71.2
	c-11.7,0-18.7-12.9-18.7-27.9c0-8.2,1.9-16.3,5.5-23.8c4-8.1,10.9-15.8,20.3-15.8c9.2,0,14.1,7.3,14.1,15.6c0,7.6-4.2,14-10.2,14
	c-3.8,0-7.3-2.6-7.3-7.7c0-1.7,0.3-3.4,0.8-5l-1.1-0.5c-2.6,1.2-4.2,3.8-4.2,6.6c0,5.6,5.2,9.5,11.4,9.5c9.2,0,16.3-8.8,16.3-18.5
	c0-10.2-7.9-17.7-18.2-17.7c-10.1,0-19.5,7-26,15.9C3.7,24.7,0.2,35.2,0,45.9C0,62.2,9.1,75.2,23.9,75.3L23.9,75.3L23.9,75.3z
	 M59.1,74.7c1.8-0.2,3.6-0.8,5.2-1.7c0.1-7,1.4-13.9,3.7-20.5c1.9-5.1,4.2-8.8,6.6-11c1.2-1.1,2.7-1.7,4.3-1.8c1.8,0,2.6,1.2,2.6,3
	c0,2.9-2.3,10.1-2.3,17c0,10.4,5,15.1,10.3,15.1c6.1,0,12.4-6,16.8-30.1l-2.4-0.3C100.2,64.5,95.3,71,91.7,71
	c-2.9,0-4.7-4.7-4.7-11.2c0-6.9,1.9-13.4,3.2-19.6c-2-3.1-5.3-5.1-9-5.6c-6.2,0.8-11.3,6.4-14.6,14.1c-1.7,4.2-2.9,8.5-3.6,13h-0.3
	c-0.1-1.2-0.1-2.3-0.1-3.9c0.2-6.6,0.9-13.2,2.1-19.7C75.2,35.2,83,24,83,13.7c0.1-4.5-1.7-8.8-4.9-12c-0.8-0.9-1.8-1.5-3-1.7
	c-1.7,0-5.5,2.1-7.8,3.9c-2.5,5.6-4.6,11.4-6.2,17.4c-3.7,13.1-6.3,28-6.3,40.5C54.8,66,55.1,74.7,59.1,74.7L59.1,74.7L59.1,74.7z
	 M65.3,35.3C67,25,69.7,15,73.2,5.2c3.1,2.8,4.6,7.3,4.6,11.6C77.8,24.7,72.8,33.1,65.3,35.3L65.3,35.3z M98.6,57.4
	c0,11,8.1,17.5,16.4,17.5c9.4,0,20-8.5,24-30.2l-2.4-0.3C133.3,62.3,125.1,71,117.7,71c-6,0-10.8-5.6-11.2-14.1
	c5.3-1.1,10.2-3.4,14.6-6.5c3.5-2.7,6-6.3,6-10.2c0-4.2-2.9-6.9-7.5-6.9c-4.1,0-8.5,2.1-11.9,5C102,43,98.7,50,98.6,57.4L98.6,57.4
	L98.6,57.4z M106.5,53.9c0.2-3.8,1.2-7.6,2.9-11c2-3.8,4.6-5.9,7.4-5.9c2.5,0,3.9,1.7,3.9,4.7C120.6,49.2,111.9,52.9,106.5,53.9
	L106.5,53.9L106.5,53.9z M131.1,90.8c0,6.8,1.7,13,7.7,13c5.5,0,9.3-5.2,11.5-9.4c3.4-7.1,5.1-14.8,5.2-22.7
	c0-9.7-3.4-18.8-12.3-22.7l0.3-2c4.7-1.4,11-3.6,15-5.2c0-1.1-0.5-2.2-1.2-3c-4.3,1.8-8.8,3.4-13.3,4.8c1.5-9,2-12.5,3.6-20.8
	c2-10.3,3.8-18.4,3.8-20.6c0-1.4-0.6-2-1.7-2c-1.7,0-5.2,1.4-7,2.7c-1.3,9.5-3.4,23-6.5,42.7c-2.1,0.5-4.2,0.9-6.4,1.2
	c0,0.9,0.1,1.7,0.4,2.5c1.8,0.2,3.6,0.6,5.3,1.1C133,67.9,131.1,83.5,131.1,90.8L131.1,90.8L131.1,90.8z M139.2,91.2
	c0-8.9,1.5-24.2,3.2-36.7c6.4,5.5,8.4,13.6,8.4,21.1c0,6.4-1.5,13.9-3.8,18.8c-1.4,3.1-3.1,5.2-5,5.2
	C139.7,99.6,139.2,96.2,139.2,91.2L139.2,91.2L139.2,91.2z M163.6,57.2c0,13.9,6.9,17.7,12.3,17.7c5.1,0,14.3-3.3,19-30.2l-2.4-0.3
	c-3.5,19.8-9.9,26.8-14.4,26.8c-3.6,0-6.4-4.4-6.4-14.7c0.2-6.8,0.9-13.6,2.2-20.3l12.7-0.5c0.4-0.6,0.6-1.2,0.6-1.9
	c0-0.5-0.1-1.1-0.4-1.5l-12.3,0.9c1.3-6.8,3.1-14.4,3.1-16.4c0.1-0.8-0.5-1.5-1.3-1.6c-0.1,0-0.3,0-0.4,0c-1.6,0-4.8,1.2-6.6,2.4
	c-0.8,4.3-1.5,9-2.7,16l-5.9,0.3c-0.1,0.4-0.2,0.9-0.2,1.4c0,0.6,0.1,1.2,0.4,1.7l5.2-0.3C164.7,44.3,163.6,51.7,163.6,57.2
	L163.6,57.2L163.6,57.2z M187.1,57.4c0,11,8.1,17.5,16.4,17.5c9.4,0,20-8.5,24-30.2l-2.4-0.3C221.8,62.3,213.6,71,206.2,71
	c-6,0-10.8-5.6-11.2-14.1c5.3-1.1,10.2-3.4,14.6-6.5c3.5-2.7,6-6.3,6-10.2c0-4.2-2.9-6.9-7.5-6.9c-4.1,0-8.5,2.1-11.9,5
	C190.6,43,187.3,50,187.1,57.4L187.1,57.4L187.1,57.4z M195,53.9c0.2-3.8,1.2-7.6,2.9-11c2-3.8,4.6-5.9,7.4-5.9
	c2.5,0,3.9,1.7,3.9,4.7C209.2,49.2,200.5,52.9,195,53.9L195,53.9L195,53.9z M225.2,74.9c1.7-0.3,3.4-0.8,4.9-1.6
	c0.2-7.5,1.7-15,4.4-22c2.5-6.4,5.7-11.2,9.4-11.2c2.4,0,4,1.9,4.7,4.5c2.6-0.9,4.9-2.7,4.9-5.7c0-3.2-2.6-5.7-6.4-5.7
	c-7.9,0-13.1,11-16.4,23h-0.3c0.7-5.5,2.8-14,2.8-19.2c0-1.9-0.3-3.6-2.1-3.6c-2.2,0.3-4.3,1-6.2,2.2c0.1,1.2,0.2,2.5,0.2,3.8
	c0,9.3-2.8,22.5-2.8,29.3C222.3,72.1,223,75,225.2,74.9L225.2,74.9L225.2,74.9z"/>
</svg>
