<svg id="Layer_1" data-name="Layer 1" xmlns="http://www.w3.org/2000/svg" viewBox="0 0 253.44 103.74"><defs><style>.cls-1{fill:#fff;}</style></defs><title>Chefter_logo_2.0</title><path class="cls-1" d="M-370.86-163.5c11.68,0,23.27-8,23.27-19.23a15.39,15.39,0,0,0-.3-3.08l-1.9-.1c-1.9,10.29-8.29,18.36-17.57,18.36-11.68,0-18.67-12.88-18.67-27.88a55.36,55.36,0,0,1,5.49-23.75c4-8.08,10.88-15.77,20.27-15.77,9.19,0,14.08,7.31,14.08,15.58,0,7.59-4.19,14-10.19,14-3.79,0-7.29-2.6-7.29-7.69a19.13,19.13,0,0,1,.8-5l-1.1-.48a7.21,7.21,0,0,0-4.19,6.63c0,5.58,5.19,9.52,11.38,9.52,9.19,0,16.28-8.75,16.28-18.46,0-10.19-7.89-17.69-18.17-17.69-10.09,0-19.47,7-26,15.86a51.69,51.69,0,0,0-10.09,29.81c0,16.34,9.09,29.32,23.87,29.32h0Zm35.25-.58a13,13,0,0,0,5.19-1.73,64.59,64.59,0,0,1,3.69-20.48c1.9-5.09,4.19-8.84,6.59-11a7.24,7.24,0,0,1,4.29-1.83c1.8,0,2.6,1.25,2.6,3,0,2.88-2.3,10.09-2.3,17,0,10.38,5,15.09,10.29,15.09,6.09,0,12.38-6,16.78-30.09l-2.4-.29c-3.69,20.09-8.59,26.63-12.18,26.63-2.89,0-4.69-4.71-4.69-11.25,0-6.92,1.9-13.36,3.2-19.61a12.62,12.62,0,0,0-9-5.58c-6.19.77-11.28,6.35-14.58,14.13a57,57,0,0,0-3.59,13H-332c-0.1-1.25-.1-2.31-0.1-3.85a133.47,133.47,0,0,1,2.1-19.71c10.49-2.88,18.27-14.13,18.27-24.42a16.36,16.36,0,0,0-4.89-12,4.9,4.9,0,0,0-3-1.73c-1.7,0-5.49,2.11-7.79,3.85a118,118,0,0,0-6.19,17.4c-3.7,13.07-6.29,28-6.29,40.48,0,4.33.3,13,4.29,13h0Zm6.19-39.42a173,173,0,0,1,7.89-30.09c3.09,2.79,4.59,7.31,4.59,11.63,0,7.88-5,16.25-12.48,18.46h0Zm33.25,22.11c0,11,8.09,17.5,16.38,17.5,9.39,0,20-8.46,24-30.19l-2.4-.29c-3.29,17.88-11.48,26.54-18.87,26.54-6,0-10.79-5.58-11.18-14.13a38.71,38.71,0,0,0,14.58-6.54c3.49-2.69,6-6.34,6-10.19,0-4.23-2.9-6.92-7.49-6.92-4.09,0-8.49,2.11-11.88,5a25.72,25.72,0,0,0-9.09,19.23h0Zm7.89-3.46a28,28,0,0,1,2.9-11c2-3.75,4.59-5.87,7.39-5.87,2.5,0,3.89,1.73,3.89,4.71,0,7.4-8.69,11.15-14.18,12.12h0ZM-263.62-148c0,6.83,1.7,13,7.69,13,5.49,0,9.29-5.19,11.48-9.42a53.65,53.65,0,0,0,5.19-22.69c0-9.71-3.39-18.75-12.28-22.69l0.3-2c4.69-1.44,11-3.56,15-5.19a4.69,4.69,0,0,0-1.2-3,136.64,136.64,0,0,1-13.28,4.81c1.5-9,2-12.5,3.6-20.77,2-10.29,3.79-18.36,3.79-20.57,0-1.35-.6-2-1.7-2-1.7,0-5.19,1.44-7,2.69-1.3,9.52-3.4,23-6.49,42.69-2.1.48-4.19,0.87-6.39,1.25a6.27,6.27,0,0,0,.4,2.5,22.33,22.33,0,0,1,5.29,1.15c-2.5,17.4-4.39,33-4.39,40.29h0Zm8.09,0.38c0-8.94,1.5-24.23,3.2-36.73,6.39,5.48,8.39,13.65,8.39,21.15,0,6.44-1.5,13.94-3.79,18.84-1.4,3.08-3.1,5.19-5,5.19-2.3,0-2.8-3.37-2.8-8.46h0Zm24.37-33.94c0,13.94,6.89,17.69,12.28,17.69,5.09,0,14.28-3.27,19-30.19l-2.4-.29c-3.5,19.81-9.89,26.82-14.38,26.82-3.6,0-6.39-4.42-6.39-14.71a123.92,123.92,0,0,1,2.2-20.29l12.68-.48a3.88,3.88,0,0,0,.6-1.92,3.19,3.19,0,0,0-.4-1.54l-12.28.87c1.3-6.83,3.1-14.42,3.1-16.35a1.46,1.46,0,0,0-1.7-1.63c-1.6,0-4.79,1.25-6.59,2.4-0.8,4.33-1.5,9-2.7,16l-5.89.29a4.85,4.85,0,0,0-.2,1.35,3.4,3.4,0,0,0,.4,1.73l5.19-.29c-1.4,7.59-2.5,15-2.5,20.57h0Zm23.56,0.19c0,11,8.09,17.5,16.38,17.5,9.39,0,20-8.46,24-30.19l-2.4-.29c-3.29,17.88-11.48,26.54-18.87,26.54-6,0-10.79-5.58-11.18-14.13a38.71,38.71,0,0,0,14.58-6.54c3.49-2.69,6-6.34,6-10.19,0-4.23-2.9-6.92-7.49-6.92-4.1,0-8.49,2.11-11.88,5a25.72,25.72,0,0,0-9.09,19.23h0Zm7.89-3.46a28,28,0,0,1,2.89-11c2-3.75,4.59-5.87,7.39-5.87,2.5,0,3.9,1.73,3.9,4.71,0,7.4-8.69,11.15-14.18,12.12h0Zm30.16,21a14.63,14.63,0,0,0,4.89-1.64,66,66,0,0,1,4.39-22c2.5-6.35,5.69-11.25,9.39-11.25,2.4,0,4,1.92,4.69,4.52,2.6-.86,4.89-2.69,4.89-5.67,0-3.17-2.6-5.67-6.39-5.67-7.89,0-13.08,11-16.38,23h-0.3c0.7-5.48,2.8-14,2.8-19.23,0-1.92-.3-3.56-2.1-3.56a15.65,15.65,0,0,0-6.19,2.21,32.24,32.24,0,0,1,.2,3.75c0,9.33-2.8,22.5-2.8,29.32,0,3.36.7,6.25,2.9,6.25h0Z" transform="translate(394.73 238.78)"/></svg>